<svg width="20" height="20" viewBox="0 0 20 20" fill="none" xmlns="http://www.w3.org/2000/svg">
<path d="M15.0002 6.66665H14.1668V4.99998C14.1668 2.69998 12.3002 0.833313 10.0002 0.833313C7.70016 0.833313 5.8335 2.69998 5.8335 4.99998V6.66665H5.00016C4.0835 6.66665 3.3335 7.41665 3.3335 8.33331V16.6666C3.3335 17.5833 4.0835 18.3333 5.00016 18.3333H15.0002C15.9168 18.3333 16.6668 17.5833 16.6668 16.6666V8.33331C16.6668 7.41665 15.9168 6.66665 15.0002 6.66665ZM10.0002 14.1666C9.0835 14.1666 8.3335 13.4166 8.3335 12.5C8.3335 11.5833 9.0835 10.8333 10.0002 10.8333C10.9168 10.8333 11.6668 11.5833 11.6668 12.5C11.6668 13.4166 10.9168 14.1666 10.0002 14.1666ZM12.5835 6.66665H7.41683V4.99998C7.41683 3.57498 8.57516 2.41665 10.0002 2.41665C11.4252 2.41665 12.5835 3.57498 12.5835 4.99998V6.66665Z" fill="#A5B0C1"/>
</svg>
